<svg xmlns="http://www.w3.org/2000/svg" viewBox="0 0 16 16" fill="none">
  <path fill-rule="evenodd" clip-rule="evenodd" d="M16 16H0V0H16V16ZM10.09 10.09H8.7V12.27L9.64 13.22H11.83V11.83H10.09L10.09 10.09ZM13.22 9.64L12.27 8.7H10.09V10.09H11.83L11.83 11.83H13.22L13.22 9.64ZM7.3 8.7H5.91V10.09H7.3V8.7ZM2.78 12.27L3.73 13.22H7.3V11.83H4.17V8.7H2.78L2.78 12.27ZM11.64 5.91V3.73L10.7 2.78H8.7V4.17H10.25V5.91H8.7V7.3H13.22V5.91H11.64ZM4.17 2.78H2.78V7.3H4.17V5.74H5.91V7.3H7.3V5.74L5.91 4.35H4.17V2.78ZM7.3 2.78H5.91L5.91 4.35H7.3V2.78Z" fill="currentColor"/>
</svg>
