<?xml version="1.0" encoding="UTF-8"?>
<svg viewBox="0 0 24 24" xmlns="http://www.w3.org/2000/svg" fill="currentColor">
    <path id="path0"
        d="M 5.68608 17.017227 L 1.920257 17.017227 C 1.106327 17.017227 0.446512 17.677059 0.446512 18.49094 L 0.446512 22.256819 C 0.446512 23.070698 1.106327 23.73053 1.920257 23.73053 L 5.68608 23.73053 C 6.500003 23.73053 7.159825 23.070698 7.159825 22.256819 L 7.159825 18.49094 C 7.159825 17.677059 6.500003 17.017227 5.68608 17.017227 Z" />
    <path id="path1"
        d="M 18.08707 23.728745 L 21.852949 23.728745 C 22.666828 23.728745 23.32666 23.068911 23.32666 22.255032 L 23.32666 18.489155 C 23.32666 17.675274 22.666828 17.015442 21.852949 17.015442 L 18.08707 17.015442 C 17.273191 17.015442 16.613358 17.675274 16.613358 18.489155 L 16.613358 22.255032 C 16.613358 23.068911 17.273191 23.728745 18.08707 23.728745 Z" />
    <path id="path2"
        d="M 21.852949 0.334885 L 18.085396 0.334885 C 17.272299 0.334885 16.611572 0.993814 16.611572 1.808628 L 16.611572 4.653366 C 16.569042 5.666567 16.151106 7.000376 15.426642 7.684097 C 14.7216 8.348349 13.469247 8.67781 12.572987 8.67781 L 11.198444 8.67781 C 10.302151 8.67781 9.048056 8.348349 8.344845 7.684097 C 7.620368 7.000376 7.202333 5.666567 7.159825 4.653366 L 7.159825 1.808628 C 7.159825 0.995586 6.500897 0.334885 5.68608 0.334885 L 1.920257 0.334885 C 1.105443 0.334885 0.446512 0.993814 0.446512 1.808628 L 0.446512 5.576227 C 0.446512 6.389269 1.105443 7.048199 1.920257 7.048199 L 3.340856 7.048199 C 5.16 7.048199 6.895903 7.905521 7.923271 9.405823 C 8.295248 9.951394 8.530828 10.514679 8.530828 11.003565 L 8.530828 13.917433 C 8.530828 14.730419 9.189767 15.391144 10.004573 15.391144 L 13.772204 15.391144 C 14.585191 15.391144 15.245916 14.732204 15.245916 13.917433 L 15.245916 11.003565 C 15.245916 10.514679 15.481452 9.951394 15.853506 9.405823 C 16.879032 7.905521 18.616743 7.048199 20.435946 7.048199 L 21.856522 7.048199 C 22.669506 7.048199 23.330233 6.389269 23.330233 5.574453 L 23.330233 1.808628 C 23.330233 0.995586 22.671293 0.334885 21.856522 0.334885 L 21.852949 0.334885 Z" />
</svg>