<svg viewBox="0 0 32 32" fill="none" xmlns="http://www.w3.org/2000/svg">
<path d="M29.0063 32C30.6426 32 31.9691 30.6735 31.9691 29.0372C31.9691 27.4008 30.6426 26.0743 29.0063 26.0743C27.37 26.0743 26.0435 27.4008 26.0435 29.0372C26.0435 30.6735 27.37 32 29.0063 32Z" fill="currentColor"/>
<path d="M2.96281 5.92563C4.59913 5.92563 5.92563 4.59913 5.92563 2.96281C5.92563 1.3265 4.59913 0 2.96281 0C1.3265 0 0 1.3265 0 2.96281C0 4.59913 1.3265 5.92563 2.96281 5.92563Z" fill="currentColor"/>
<path d="M16.0179 18.9523C17.6534 18.9523 18.9792 17.6264 18.9792 15.991C18.9792 14.3555 17.6534 13.0297 16.0179 13.0297C14.3825 13.0297 13.0566 14.3555 13.0566 15.991C13.0566 17.6264 14.3825 18.9523 16.0179 18.9523Z" fill="currentColor"/>
<path d="M2.96243 12.1157C4.43511 12.1157 5.62896 10.9218 5.62896 9.44912C5.62896 7.97644 4.43511 6.78259 2.96243 6.78259C1.48975 6.78259 0.295898 7.97644 0.295898 9.44912C0.295898 10.9218 1.48975 12.1157 2.96243 12.1157Z" fill="currentColor"/>
<path d="M9.49905 12.1157C10.9717 12.1157 12.1656 10.9218 12.1656 9.44912C12.1656 7.97644 10.9717 6.78259 9.49905 6.78259C8.02637 6.78259 6.83252 7.97644 6.83252 9.44912C6.83252 10.9218 8.02637 12.1157 9.49905 12.1157Z" fill="currentColor"/>
<path d="M29.0064 25.199C30.4791 25.199 31.6729 24.0052 31.6729 22.5325C31.6729 21.0598 30.4791 19.866 29.0064 19.866C27.5337 19.866 26.3398 21.0598 26.3398 22.5325C26.3398 24.0052 27.5337 25.199 29.0064 25.199Z" fill="currentColor"/>
<path d="M22.5347 25.199C24.0074 25.199 25.2012 24.0052 25.2012 22.5325C25.2012 21.0598 24.0074 19.866 22.5347 19.866C21.062 19.866 19.8682 21.0598 19.8682 22.5325C19.8682 24.0052 21.062 25.199 22.5347 25.199Z" fill="currentColor"/>
<path d="M29.0064 18.3567C30.3146 18.3567 31.3752 17.2962 31.3752 15.988C31.3752 14.6798 30.3146 13.6193 29.0064 13.6193C27.6982 13.6193 26.6377 14.6798 26.6377 15.988C26.6377 17.2962 27.6982 18.3567 29.0064 18.3567Z" fill="currentColor"/>
<path d="M29.0064 12.11C30.3146 12.11 31.3752 11.0495 31.3752 9.74129C31.3752 8.43307 30.3146 7.37256 29.0064 7.37256C27.6982 7.37256 26.6377 8.43307 26.6377 9.74129C26.6377 11.0495 27.6982 12.11 29.0064 12.11Z" fill="currentColor"/>
<path d="M29.0064 5.33146C30.3146 5.33146 31.3752 4.27094 31.3752 2.96272C31.3752 1.65451 30.3146 0.593994 29.0064 0.593994C27.6982 0.593994 26.6377 1.65451 26.6377 2.96272C26.6377 4.27094 27.6982 5.33146 29.0064 5.33146Z" fill="currentColor"/>
<path d="M2.96297 18.298C4.27118 18.298 5.3317 17.2375 5.3317 15.9293C5.3317 14.6211 4.27118 13.5605 2.96297 13.5605C1.65476 13.5605 0.594238 14.6211 0.594238 15.9293C0.594238 17.2375 1.65476 18.298 2.96297 18.298Z" fill="currentColor"/>
<path d="M2.96297 24.9012C4.27118 24.9012 5.3317 23.8406 5.3317 22.5324C5.3317 21.2242 4.27118 20.1637 2.96297 20.1637C1.65476 20.1637 0.594238 21.2242 0.594238 22.5324C0.594238 23.8406 1.65476 24.9012 2.96297 24.9012Z" fill="currentColor"/>
<path d="M2.96297 31.3483C4.27118 31.3483 5.3317 30.2878 5.3317 28.9796C5.3317 27.6714 4.27118 26.6108 2.96297 26.6108C1.65476 26.6108 0.594238 27.6714 0.594238 28.9796C0.594238 30.2878 1.65476 31.3483 2.96297 31.3483Z" fill="currentColor"/>
<path opacity="0.5" d="M9.4988 17.8826C10.5771 17.8826 11.4512 17.0085 11.4512 15.9302C11.4512 14.8519 10.5771 13.9778 9.4988 13.9778C8.42051 13.9778 7.54639 14.8519 7.54639 15.9302C7.54639 17.0085 8.42051 17.8826 9.4988 17.8826Z" fill="currentColor"/>
<path opacity="0.5" d="M22.5349 17.9418C23.6123 17.9418 24.4858 17.0684 24.4858 15.9909C24.4858 14.9135 23.6123 14.04 22.5349 14.04C21.4574 14.04 20.584 14.9135 20.584 15.9909C20.584 17.0684 21.4574 17.9418 22.5349 17.9418Z" fill="currentColor"/>
<path opacity="0.5" d="M16.0182 11.4025C17.0646 11.4025 17.9129 10.5542 17.9129 9.50784C17.9129 8.46144 17.0646 7.61316 16.0182 7.61316C14.9718 7.61316 14.1235 8.46144 14.1235 9.50784C14.1235 10.5542 14.9718 11.4025 16.0182 11.4025Z" fill="currentColor"/>
<path opacity="0.5" d="M16.0177 24.4256C17.0632 24.4256 17.9108 23.578 17.9108 22.5324C17.9108 21.4869 17.0632 20.6393 16.0177 20.6393C14.9721 20.6393 14.1245 21.4869 14.1245 22.5324C14.1245 23.578 14.9721 24.4256 16.0177 24.4256Z" fill="currentColor"/>
<path opacity="0.5" d="M9.49903 4.67762C10.4456 4.67762 11.2129 3.9103 11.2129 2.96375C11.2129 2.0172 10.4456 1.24988 9.49903 1.24988C8.55248 1.24988 7.78516 2.0172 7.78516 2.96375C7.78516 3.9103 8.55248 4.67762 9.49903 4.67762Z" fill="currentColor"/>
<path opacity="0.5" d="M22.5351 30.7495C23.4808 30.7495 24.2475 29.9829 24.2475 29.0372C24.2475 28.0915 23.4808 27.3248 22.5351 27.3248C21.5894 27.3248 20.8228 28.0915 20.8228 29.0372C20.8228 29.9829 21.5894 30.7495 22.5351 30.7495Z" fill="currentColor"/>
<path opacity="0.3" d="M22.535 10.9847C23.3506 10.9847 24.0118 10.3235 24.0118 9.50785C24.0118 8.69221 23.3506 8.03101 22.535 8.03101C21.7193 8.03101 21.0581 8.69221 21.0581 9.50785C21.0581 10.3235 21.7193 10.9847 22.535 10.9847Z" fill="currentColor"/>
<path opacity="0.3" d="M9.49877 23.9502C10.3136 23.9502 10.9741 23.2896 10.9741 22.4748C10.9741 21.66 10.3136 20.9995 9.49877 20.9995C8.68396 20.9995 8.02344 21.66 8.02344 22.4748C8.02344 23.2896 8.68396 23.9502 9.49877 23.9502Z" fill="currentColor"/>
<path opacity="0.3" d="M16.0179 30.0384C16.5709 30.0384 17.0192 29.5902 17.0192 29.0372C17.0192 28.4842 16.5709 28.0359 16.0179 28.0359C15.4649 28.0359 15.0166 28.4842 15.0166 29.0372C15.0166 29.5902 15.4649 30.0384 16.0179 30.0384Z" fill="currentColor"/>
<path opacity="0.3" d="M16.0178 4.02273C16.5691 4.02273 17.016 3.5758 17.016 3.02449C17.016 2.47317 16.5691 2.02625 16.0178 2.02625C15.4665 2.02625 15.0195 2.47317 15.0195 3.02449C15.0195 3.5758 15.4665 4.02273 16.0178 4.02273Z" fill="currentColor"/>
<path opacity="0.1" d="M9.49903 29.5646C9.8221 29.5646 10.084 29.3027 10.084 28.9796C10.084 28.6565 9.8221 28.3947 9.49903 28.3947C9.17596 28.3947 8.91406 28.6565 8.91406 28.9796C8.91406 29.3027 9.17596 29.5646 9.49903 29.5646Z" fill="currentColor"/>
<path opacity="0.1" d="M22.5345 3.59856C22.8551 3.59856 23.1149 3.3387 23.1149 3.01815C23.1149 2.6976 22.8551 2.43774 22.5345 2.43774C22.214 2.43774 21.9541 2.6976 21.9541 3.01815C21.9541 3.3387 22.214 3.59856 22.5345 3.59856Z" fill="currentColor"/>
</svg>
